<svg width="72" height="72" viewBox="0 0 72 72" fill="none" xmlns="http://www.w3.org/2000/svg">
<g clip-path="url(#clip0_2679_29385)">
<mask id="mask0_2679_29385" style="mask-type:luminance" maskUnits="userSpaceOnUse" x="0" y="0" width="72" height="72">
<path d="M72 0H0V72H72V0Z" fill="white"/>
</mask>
<g mask="url(#mask0_2679_29385)">
<mask id="mask1_2679_29385" style="mask-type:luminance" maskUnits="userSpaceOnUse" x="-1" y="-1" width="74" height="74">
<path d="M-0.25 -0.25H72.25V72.25H-0.25V-0.25Z" fill="white"/>
</mask>
<g mask="url(#mask1_2679_29385)">
<path d="M17.0086 41.3761C11.3967 41.811 6.97861 46.5026 6.97861 52.226C6.97861 58.2365 11.8511 63.109 17.8616 63.109H34.7908H36H51.7199C59.0662 63.109 65.0214 57.1538 65.0214 49.8076C65.0214 42.4613 59.0662 36.5061 51.7199 36.5061C51.4282 36.5061 51.1387 36.5154 50.8517 36.534C47.8154 30.7655 41.7625 26.8323 34.7908 26.8323C26.004 26.8323 18.6764 33.0803 17.0086 41.3761Z" fill="url(#paint0_linear_2679_29385)"/>
<path d="M17.8616 41.343C11.8511 41.343 6.97861 46.2155 6.97861 52.226C6.97861 58.2366 11.8511 63.1091 17.8616 63.1091H36V55.8537C36 47.8397 29.5034 41.343 21.4893 41.343H17.8616Z" fill="url(#paint1_radial_2679_29385)"/>
<path d="M16.6525 44.9706C16.6525 54.9882 24.7732 63.109 34.7908 63.109C44.8082 63.109 52.9291 54.9882 52.9291 44.9706C52.9291 34.9532 44.8082 26.8323 34.7908 26.8323C24.7732 26.8323 16.6525 34.9532 16.6525 44.9706Z" fill="url(#paint2_radial_2679_29385)"/>
<path d="M38.4185 49.8075C38.4185 57.1538 44.3737 63.109 51.7199 63.109C59.0662 63.109 65.0214 57.1538 65.0214 49.8075C65.0214 42.4614 59.0662 36.5061 51.7199 36.5061C44.3737 36.5061 38.4185 42.4614 38.4185 49.8075Z" fill="url(#paint3_radial_2679_29385)"/>
</g>
</g>
</g>
<defs>
<linearGradient id="paint0_linear_2679_29385" x1="36" y1="26.8658" x2="36.1415" y2="62.1848" gradientUnits="userSpaceOnUse">
<stop stop-color="#AFCEFA"/>
<stop offset="0.39" stop-color="#B1D0F9"/>
<stop offset="0.78" stop-color="#B4D2F9"/>
<stop offset="0.89" stop-color="#90B4EE"/>
<stop offset="1" stop-color="#6C95E3"/>
</linearGradient>
<radialGradient id="paint1_radial_2679_29385" cx="0" cy="0" r="1" gradientUnits="userSpaceOnUse" gradientTransform="translate(25.7971 64.1466) scale(25.4965)">
<stop offset="0.69" stop-color="#8FABDD" stop-opacity="0"/>
<stop offset="0.84" stop-color="#7296D8" stop-opacity="0.5"/>
<stop offset="1" stop-color="#5582D3"/>
</radialGradient>
<radialGradient id="paint2_radial_2679_29385" cx="0" cy="0" r="1" gradientUnits="userSpaceOnUse" gradientTransform="translate(35.386 60.4518) scale(33.7141 33.7141)">
<stop offset="0.6" stop-color="#C7DFFF" stop-opacity="0"/>
<stop offset="0.8" stop-color="#8FB0EC" stop-opacity="0.5"/>
<stop offset="1" stop-color="#5782DA"/>
</radialGradient>
<radialGradient id="paint3_radial_2679_29385" cx="0" cy="0" r="1" gradientUnits="userSpaceOnUse" gradientTransform="translate(44.0755 60.6493) scale(26.5927)">
<stop offset="0.48" stop-color="#8FABDD" stop-opacity="0"/>
<stop offset="0.74" stop-color="#7396DC" stop-opacity="0.5"/>
<stop offset="1" stop-color="#5782DA"/>
</radialGradient>
<clipPath id="clip0_2679_29385">
<rect width="72" height="72" fill="white"/>
</clipPath>
</defs>
</svg>
